<svg xmlns:xlink="http://www.w3.org/1999/xlink" xmlns="http://www.w3.org/2000/svg" viewBox="0 0 60 66.70372429127293" x="0" y="0" width="74" height="74" class="image-svg-svg bn" style="overflow: visible;" fill="#CD8C2A"><g hollow-target="iconBnFill" mask="url(#76275b95-4594-4136-8433-423df74afda4)" fill="#CD8C2A"><g fill="#CD8C2A"><svg fill="#000000" xmlns="http://www.w3.org/2000/svg" xmlns:xlink="http://www.w3.org/1999/xlink" version="1.1" x="0" y="0" viewBox="9.5 5 81 90.05" style="overflow: visible;" xml:space="preserve" width="60" height="66.70372429127293" filtersec="colorsf3013657197" filter="url(#a8U-uGXqs8_pjfeUlJt5-)"><g transform="scale(1, 1) skewX(0)"><path d="M90.5,68.6V31.4c0-2.8-1.5-5.4-4-6.8L54,6c-1.2-0.7-2.6-1-4-1s-2.7,0.3-4,1L13.5,24.6c-2.4,1.4-4,4-4,6.8v37.2  c0,2.8,1.5,5.4,4,6.8L46,94c2.4,1.4,5.5,1.4,7.9,0l32.6-18.6C89,74,90.5,71.4,90.5,68.6z"></path></g><defs><filter id="a8U-uGXqs8_pjfeUlJt5-"><feColorMatrix type="matrix" values="0 0 0 0 0.80078125  0 0 0 0 0.546875  0 0 0 0 0.1640625  0 0 0 1 0"></feColorMatrix></filter><pattern id="watermark" patternUnits="userSpaceOnUse" width="100%" height="100%">
<image xlink:href="https://www.logoai.com/img/watermark/LOGOAI-watermark.png" x="0" y="0" width="100%" height="100%">
</image>
</pattern><pattern id="watermark" patternUnits="userSpaceOnUse" width="100%" height="100%">
<image xlink:href="https://www.logoai.com/img/watermark/LOGOAI-watermark.png" x="0" y="0" width="100%" height="100%">
</image>
</pattern></defs></svg></g> <g filter="url(#colors8188515118)" fill="#CD8C2A"><svg xmlns="http://www.w3.org/2000/svg" xmlns:xlink="http://www.w3.org/1999/xlink" viewBox="0 0 73.944 48.24000000000001" width="44" height="48.91606" x="8" y="8.893832145636466" class="image-svg-letter" fill="#CD8C2A"><path transform="translate(-1.1520000000000001 48.24000000000001)" d="M1.15-48.24L1.15-39.74L6.55-39.74L17.35 0L29.16 0L38.16-30.89L47.09 0L58.97 0L69.70-39.74L75.10-39.74L75.10-48.24L54.43-48.24L54.43-39.74L59.11-39.74L52.20-13.18L42.98-45.36L33.34-45.36L24.05-13.18L17.21-39.74L21.89-39.74L21.89-48.24Z" fill="#CD8C2A"></path></svg></g></g><mask id="76275b95-4594-4136-8433-423df74afda4" fill="#CD8C2A"><g fill="#FFFFFF"><svg xmlns="http://www.w3.org/2000/svg" xmlns:xlink="http://www.w3.org/1999/xlink" version="1.1" x="0" y="0" viewBox="9.5 5 81 90.05" style="overflow: visible;" xml:space="preserve" width="60" height="66.70372429127293" filtersec="colorsf3013657197" fill="#FFFFFF"><g transform="scale(1, 1) skewX(0)" fill="#FFFFFF"><path d="M90.5,68.6V31.4c0-2.8-1.5-5.4-4-6.8L54,6c-1.2-0.7-2.6-1-4-1s-2.7,0.3-4,1L13.5,24.6c-2.4,1.4-4,4-4,6.8v37.2  c0,2.8,1.5,5.4,4,6.8L46,94c2.4,1.4,5.5,1.4,7.9,0l32.6-18.6C89,74,90.5,71.4,90.5,68.6z" fill="#FFFFFF"></path></g><defs></defs></svg></g> <g fill="black"><svg xmlns="http://www.w3.org/2000/svg" xmlns:xlink="http://www.w3.org/1999/xlink" viewBox="0 0 73.944 48.24000000000001" width="44" height="48.91606" x="8" y="8.893832145636466" class="image-svg-letter"><path transform="translate(-1.1520000000000001 48.24000000000001)" d="M1.15-48.24L1.15-39.74L6.55-39.74L17.35 0L29.16 0L38.16-30.89L47.09 0L58.97 0L69.70-39.74L75.10-39.74L75.10-48.24L54.43-48.24L54.43-39.74L59.11-39.74L52.20-13.18L42.98-45.36L33.34-45.36L24.05-13.18L17.21-39.74L21.89-39.74L21.89-48.24Z"></path></svg></g></mask></svg>